<mxfile host="65bd71144e">
    <diagram id="xpvCrPy5maqOfuUIInju" name="Page-1">
        <mxGraphModel dx="883" dy="633" grid="1" gridSize="10" guides="1" tooltips="1" connect="1" arrows="1" fold="1" page="1" pageScale="1" pageWidth="850" pageHeight="1100" math="0" shadow="0">
            <root>
                <mxCell id="0"/>
                <mxCell id="1" parent="0"/>
                <mxCell id="2" value="&lt;font style=&quot;font-size: 18px;&quot;&gt;&lt;b&gt;Frontend&lt;/b&gt;&lt;br&gt;(UI/UX)&lt;br&gt;&lt;/font&gt;" style="whiteSpace=wrap;html=1;" vertex="1" parent="1">
                    <mxGeometry x="20" y="80" width="170" height="120" as="geometry"/>
                </mxCell>
                <mxCell id="3" value="&lt;span style=&quot;font-size: 18px;&quot;&gt;&lt;b&gt;Backend&lt;/b&gt;&lt;br&gt;(Business logic)&lt;br&gt;&lt;/span&gt;" style="whiteSpace=wrap;html=1;" vertex="1" parent="1">
                    <mxGeometry x="290" y="80" width="170" height="120" as="geometry"/>
                </mxCell>
                <mxCell id="4" value="&lt;b&gt;DataBase&lt;/b&gt;" style="rounded=1;whiteSpace=wrap;html=1;fontSize=18;" vertex="1" parent="1">
                    <mxGeometry x="582" y="90" width="120" height="110" as="geometry"/>
                </mxCell>
                <mxCell id="5" value="" style="edgeStyle=none;orthogonalLoop=1;jettySize=auto;html=1;endArrow=classic;startArrow=classic;endSize=8;startSize=8;fontSize=18;" edge="1" parent="1">
                    <mxGeometry width="100" relative="1" as="geometry">
                        <mxPoint x="200" y="144.66000000000003" as="sourcePoint"/>
                        <mxPoint x="280" y="144.33" as="targetPoint"/>
                        <Array as="points"/>
                    </mxGeometry>
                </mxCell>
                <mxCell id="6" value="" style="edgeStyle=none;orthogonalLoop=1;jettySize=auto;html=1;endArrow=classic;startArrow=classic;endSize=8;startSize=8;fontSize=18;" edge="1" parent="1">
                    <mxGeometry width="100" relative="1" as="geometry">
                        <mxPoint x="479" y="149.6600000000002" as="sourcePoint"/>
                        <mxPoint x="559" y="149.33000000000004" as="targetPoint"/>
                        <Array as="points"/>
                    </mxGeometry>
                </mxCell>
                <mxCell id="8" value="API / Direct" style="text;html=1;align=center;verticalAlign=middle;resizable=0;points=[];autosize=1;strokeColor=none;fillColor=none;fontSize=18;" vertex="1" parent="1">
                    <mxGeometry x="466" y="106" width="110" height="40" as="geometry"/>
                </mxCell>
                <mxCell id="7" value="API" style="text;html=1;align=center;verticalAlign=middle;resizable=0;points=[];autosize=1;strokeColor=none;fillColor=none;fontSize=18;" vertex="1" parent="1">
                    <mxGeometry x="210" y="110" width="50" height="40" as="geometry"/>
                </mxCell>
                <mxCell id="9" value="&lt;ol&gt;&lt;li&gt;Frontend will give input to API based on user actions,&lt;/li&gt;&lt;li&gt;then according to the API request Backend will process that API request&lt;/li&gt;&lt;li&gt;&lt;span style=&quot;background-color: initial;&quot;&gt;Backend will Fetch Data from the DataBase using another internal-API or&amp;nbsp;&lt;/span&gt;&lt;span style=&quot;background-color: initial;&quot;&gt;Database have directly attached to the backend-server&lt;/span&gt;&lt;/li&gt;&lt;/ol&gt;" style="whiteSpace=wrap;html=1;fontSize=18;fillColor=#f5f5f5;fontColor=#333333;strokeColor=#666666;align=left;" vertex="1" parent="1">
                    <mxGeometry x="20" y="240" width="670" height="130" as="geometry"/>
                </mxCell>
            </root>
        </mxGraphModel>
    </diagram>
</mxfile>